<svg width="40" height="40" viewBox="0 0 40 40" fill="none" xmlns="http://www.w3.org/2000/svg">
<path d="M16.1111 35.5556C17.0316 35.5556 17.7778 34.8094 17.7778 33.8889C17.7778 32.9684 17.0316 32.2222 16.1111 32.2222C15.1907 32.2222 14.4445 32.9684 14.4445 33.8889C14.4445 34.8094 15.1907 35.5556 16.1111 35.5556Z" fill="#F2F2F2" stroke="#F2F2F2" stroke-width="2" stroke-linecap="round" stroke-linejoin="round"/>
<path d="M31.6667 35.5556C32.5871 35.5556 33.3333 34.8094 33.3333 33.8889C33.3333 32.9684 32.5871 32.2222 31.6667 32.2222C30.7462 32.2222 30 32.9684 30 33.8889C30 34.8094 30.7462 35.5556 31.6667 35.5556Z" fill="#F2F2F2" stroke="#F2F2F2" stroke-width="2" stroke-linecap="round" stroke-linejoin="round"/>
<path d="M3.33337 3.33333H9.39398L13.4546 23.1699C13.5931 23.8519 13.9726 24.4646 14.5266 24.9007C15.0806 25.3367 15.7738 25.5683 16.4849 25.555H31.2122C31.9232 25.5683 32.6164 25.3367 33.1704 24.9007C33.7244 24.4646 34.1039 23.8519 34.2425 23.1699L36.6667 10.7406H10.9091" stroke="#F2F2F2" stroke-width="3" stroke-linecap="round" stroke-linejoin="round"/>
</svg>
