<svg xmlns="http://www.w3.org/2000/svg" width="22" height="22" viewBox="0 0 22 22" fill="none">
  <path d="M18.6123 4.41452C18.1725 3.96607 17.6502 3.61034 17.0755 3.36763C16.5007 3.12492 15.8847 3 15.2625 3C14.6404 3 14.0243 3.12492 13.4496 3.36763C12.8748 3.61034 12.3526 3.96607 11.9128 4.41452L11 5.34476L10.0872 4.41452C9.19883 3.50912 7.99389 3.00047 6.73749 3.00047C5.4811 3.00047 4.27616 3.50912 3.38775 4.41452C2.49935 5.31992 2.00024 6.5479 2.00024 7.82833C2.00024 9.10876 2.49935 10.3367 3.38775 11.2421L4.30053 12.1724L11 19L17.6995 12.1724L18.6123 11.2421C19.0523 10.7939 19.4014 10.2617 19.6395 9.67596C19.8777 9.09021 20.0002 8.46237 20.0002 7.82833C20.0002 7.19428 19.8777 6.56645 19.6395 5.9807C19.4014 5.39494 19.0523 4.86275 18.6123 4.41452Z" fill="#EB5757" stroke="#EB5757" stroke-width="1.5" stroke-linecap="round" stroke-linejoin="round"/>
</svg>